<svg width="1024" height="1024" viewBox="0 0 1024 1024" fill="none" xmlns="http://www.w3.org/2000/svg">
  <defs>
    <linearGradient id="bg" x1="126" y1="104" x2="894" y2="910" gradientUnits="userSpaceOnUse">
      <stop offset="0" stop-color="#0F766E"/>
      <stop offset="0.48" stop-color="#2563EB"/>
      <stop offset="1" stop-color="#4F46E5"/>
    </linearGradient>
    <linearGradient id="panel" x1="296" y1="190" x2="620" y2="694" gradientUnits="userSpaceOnUse">
      <stop offset="0" stop-color="#FFFFFF"/>
      <stop offset="1" stop-color="#EAF6FF"/>
    </linearGradient>
    <linearGradient id="arrow" x1="500" y1="618" x2="790" y2="618" gradientUnits="userSpaceOnUse">
      <stop offset="0" stop-color="#22C55E"/>
      <stop offset="1" stop-color="#FBBF24"/>
    </linearGradient>
    <filter id="shadow" x="0" y="0" width="1024" height="1024" filterUnits="userSpaceOnUse" color-interpolation-filters="sRGB">
      <feDropShadow dx="0" dy="26" stdDeviation="30" flood-color="#0F172A" flood-opacity="0.28"/>
    </filter>
    <filter id="soft" x="140" y="120" width="760" height="760" filterUnits="userSpaceOnUse" color-interpolation-filters="sRGB">
      <feDropShadow dx="0" dy="16" stdDeviation="18" flood-color="#0F172A" flood-opacity="0.20"/>
    </filter>
  </defs>

  <rect x="24" y="24" width="976" height="976" rx="218" fill="url(#bg)"/>
  <path d="M136 226C286 128 466 86 646 118C793 144 898 226 946 338V102C946 59 913 24 870 24H154C111 24 76 59 76 102V286C94 264 113 244 136 226Z" fill="white" opacity="0.10"/>
  <path d="M98 774C246 904 474 952 696 900C828 869 924 808 1000 718V870C1000 942 942 1000 870 1000H154C82 1000 24 942 24 870V694C44 724 68 750 98 774Z" fill="#0F172A" opacity="0.13"/>

  <g opacity="0.18">
    <path d="M178 256H842" stroke="white" stroke-width="10" stroke-linecap="round"/>
    <path d="M178 392H842" stroke="white" stroke-width="10" stroke-linecap="round"/>
    <path d="M178 528H842" stroke="white" stroke-width="10" stroke-linecap="round"/>
    <path d="M178 664H842" stroke="white" stroke-width="10" stroke-linecap="round"/>
    <path d="M260 174V850" stroke="white" stroke-width="10" stroke-linecap="round"/>
    <path d="M512 124V900" stroke="white" stroke-width="10" stroke-linecap="round"/>
    <path d="M764 174V850" stroke="white" stroke-width="10" stroke-linecap="round"/>
  </g>

  <g filter="url(#shadow)">
    <rect x="210" y="176" width="418" height="560" rx="72" fill="url(#panel)" stroke="#BFE6FF" stroke-width="10"/>
    <path d="M506 176H556C596 176 628 208 628 248V298L506 176Z" fill="#D8EEFF"/>
    <path d="M506 176V268C506 285 519 298 536 298H628" stroke="#93C5FD" stroke-width="10" stroke-linejoin="round"/>

    <rect x="274" y="294" width="212" height="34" rx="17" fill="#0F766E" opacity="0.22"/>
    <rect x="274" y="370" width="286" height="28" rx="14" fill="#64748B" opacity="0.34"/>
    <rect x="274" y="426" width="242" height="28" rx="14" fill="#64748B" opacity="0.23"/>
    <rect x="274" y="482" width="172" height="28" rx="14" fill="#64748B" opacity="0.23"/>

    <path d="M354 592L296 536L354 480" stroke="#2563EB" stroke-width="32" stroke-linecap="round" stroke-linejoin="round"/>
    <path d="M484 480L542 536L484 592" stroke="#2563EB" stroke-width="32" stroke-linecap="round" stroke-linejoin="round"/>
    <path d="M456 462L386 610" stroke="#0F766E" stroke-width="28" stroke-linecap="round"/>
  </g>

  <g filter="url(#soft)">
    <path d="M540 620C598 670 664 681 730 650" stroke="url(#arrow)" stroke-width="48" stroke-linecap="round"/>
    <path d="M724 603L817 631L748 699Z" fill="#FBBF24"/>

    <rect x="646" y="318" width="194" height="132" rx="34" fill="#38BDF8" stroke="#E0F2FE" stroke-width="8"/>
    <rect x="692" y="360" width="102" height="22" rx="11" fill="white" opacity="0.82"/>
    <rect x="692" y="402" width="74" height="18" rx="9" fill="white" opacity="0.55"/>

    <rect x="654" y="494" width="218" height="140" rx="36" fill="#22C55E" stroke="#DCFCE7" stroke-width="8"/>
    <rect x="704" y="540" width="112" height="22" rx="11" fill="white" opacity="0.84"/>
    <rect x="704" y="584" width="82" height="18" rx="9" fill="white" opacity="0.56"/>

    <rect x="616" y="688" width="194" height="132" rx="34" fill="#F59E0B" stroke="#FEF3C7" stroke-width="8"/>
    <rect x="662" y="730" width="102" height="22" rx="11" fill="white" opacity="0.84"/>
    <rect x="662" y="772" width="74" height="18" rx="9" fill="white" opacity="0.56"/>
  </g>

  <g>
    <path d="M196 752L216 804L268 824L216 844L196 896L176 844L124 824L176 804L196 752Z" fill="#FDE047"/>
    <path d="M816 180L832 222L874 238L832 254L816 296L800 254L758 238L800 222L816 180Z" fill="#A7F3D0"/>
    <path d="M852 760L864 792L896 804L864 816L852 848L840 816L808 804L840 792L852 760Z" fill="#BAE6FD"/>
  </g>
</svg>
